# xmcd
#
# Track frame offsets:
#	150
#	23403
#	42325
#	69312
#	90176
#	107185
#	124575
#	142281
#	162771
#	188726
#	205048
#	226900
#	256386
#	274359
#	292436
#	310851
#
# Disc length: 4399 seconds
#
# Revision: 1
# Processed by: cddbd v1.5.2PL0 Copyright (c) Steve Scherf et al.
# Submitted via: audiograbber 1.83.01
#
DISCID=e3112d10
DTITLE=Best Of Rock - Power Rock
DYEAR=1900
DGENRE=Rock
TTITLE0=Journey - Higher Place
TTITLE1=Scorpions - Rock You Like A Hurrican
TTITLE2=Whitesnake - House Of Broken Love
TTITLE3=Bad English - Best Of What I Got
TTITLE4=Firehouse - All She Wrote
TTITLE5=Poison - Ride The Wind
TTITLE6=Cinderella - Gypsy Road
TTITLE7=Alice Cooper - Hey Stoopid
TTITLE8=Michael Schenker Group - Rock You To The Ground
TTITLE9=Quiet Riot - Mama We're All Crazy Now
TTITLE10=Danger Danger - Naughty Naughty
TTITLE11=Rainbow - Catch The Rainbow
TTITLE12=Lita Ford - Kiss Me Deadly
TTITLE13=Deep Purple - Knocking At Your Backdoor
TTITLE14=Europe - Rock The Night
TTITLE15=Sammy Hagar - There's Only One Way To Rock
EXTD=
EXTT0=
EXTT1=
EXTT2=
EXTT3=
EXTT4=
EXTT5=
EXTT6=
EXTT7=
EXTT8=
EXTT9=
EXTT10=
EXTT11=
EXTT12=
EXTT13=
EXTT14=
EXTT15=
PLAYORDER=
